<svg xmlns="http://www.w3.org/2000/svg" viewBox="0 0 683 683"><defs><style>.cls-1{fill:#fff;}</style></defs><g id="Layer_2" data-name="Layer 2"><g id="FMP_Temp_Logo" data-name="FMP Temp Logo"><path class="cls-1" d="M371.51,94.21c84.17,38.85,174.45,64.57,267,78.57C579.71,69.59,468.73,0,341.5,0,152.89,0,0,152.9,0,341.5S152.89,683,341.5,683a339.85,339.85,0,0,0,173.56-47.36c-80.49-15.7-158.74-40-231.89-73.82l18.7-99.06c94.54,47.65,200.14,76.53,308.37,89.48a341.26,341.26,0,0,0,49.81-87.46c-118.35-11.5-234.78-40.1-341.9-88.14l18.58-98.56C443,329.61,561.46,358.79,681.9,369Q683,355.4,683,341.5a343.39,343.39,0,0,0-6.37-65.85C565,263.62,455.36,236.46,353,192.42ZM219.25,404.48l-60.43-44.09L98.39,404.48l23.2-71.14L61,289.51l74.8.12,23-71.22,23,71.22,74.8-.12L196,333.34Z"/></g></g></svg>